<svg width="32" height="32" viewBox="0 0 32 32" fill="none" xmlns="http://www.w3.org/2000/svg">
    <path
        d="M5.33337 26.6667V13.3333C5.33337 11.9188 5.89528 10.5623 6.89547 9.5621C7.89567 8.5619 9.25222 8 10.6667 8H21.3334C22.7479 8 24.1044 8.5619 25.1046 9.5621C26.1048 10.5623 26.6667 11.9188 26.6667 13.3333V26.6667C26.6667 27.3739 26.3858 28.0522 25.8857 28.5523C25.3856 29.0524 24.7073 29.3333 24 29.3333H8.00004C7.2928 29.3333 6.61452 29.0524 6.11442 28.5523C5.61433 28.0522 5.33337 27.3739 5.33337 26.6667Z"
        stroke="#262626" stroke-width="2" stroke-linecap="round" stroke-linejoin="round" />
    <path
        d="M12 8V5.33333C12 4.62609 12.281 3.94781 12.7811 3.44771C13.2812 2.94762 13.9595 2.66666 14.6667 2.66666H17.3334C18.0406 2.66666 18.7189 2.94762 19.219 3.44771C19.7191 3.94781 20 4.62609 20 5.33333V8"
        stroke="#262626" stroke-width="2" stroke-linecap="round" stroke-linejoin="round" />
    <path
        d="M10.6667 28V21.3333C10.6667 20.6261 10.9476 19.9478 11.4477 19.4477C11.9478 18.9476 12.6261 18.6667 13.3334 18.6667H18.6667C19.3739 18.6667 20.0522 18.9476 20.5523 19.4477C21.0524 19.9478 21.3334 20.6261 21.3334 21.3333V28"
        stroke="#262626" stroke-width="2" stroke-linecap="round" stroke-linejoin="round" />
    <path d="M10.6667 13.3333H21.3334" stroke="#262626" stroke-width="2" stroke-linecap="round"
        stroke-linejoin="round" />
    <path d="M10.6667 24H21.3334" stroke="#262626" stroke-width="2" stroke-linecap="round" stroke-linejoin="round" />
</svg>