<svg width="33" height="32" viewBox="0 0 33 32" fill="none" xmlns="http://www.w3.org/2000/svg">
    <path
        d="M5.83334 21.3333V18.16C5.83334 15.3333 4.46 14 4.5 10.6667C4.54 7.04 6.48667 2.66666 10.5 2.66666C12.9933 2.66666 13.8333 5.06666 13.8333 7.33333C13.8333 11.48 11.1667 14.88 11.1667 18.9067V21.3333C11.1667 22.0406 10.8857 22.7189 10.3856 23.2189C9.88552 23.719 9.20725 24 8.5 24C7.79276 24 7.11448 23.719 6.61438 23.2189C6.11429 22.7189 5.83334 22.0406 5.83334 21.3333Z"
        stroke="#262626" stroke-width="2" stroke-linecap="round" stroke-linejoin="round" />
    <path
        d="M27.1667 26.6667V23.4933C27.1667 20.6667 28.54 19.3333 28.5 16C28.46 12.3733 26.5133 8 22.5 8C20.0067 8 19.1667 10.4 19.1667 12.6667C19.1667 16.8133 21.8333 20.2133 21.8333 24.24V26.6667C21.8333 27.3739 22.1143 28.0522 22.6144 28.5523C23.1145 29.0524 23.7927 29.3333 24.5 29.3333C25.2072 29.3333 25.8855 29.0524 26.3856 28.5523C26.8857 28.0522 27.1667 27.3739 27.1667 26.6667Z"
        stroke="#262626" stroke-width="2" stroke-linecap="round" stroke-linejoin="round" />
    <path d="M21.8333 22.6667H27.1667" stroke="#262626" stroke-width="2" stroke-linecap="round"
        stroke-linejoin="round" />
    <path d="M5.83334 17.3333H11.1667" stroke="#262626" stroke-width="2" stroke-linecap="round"
        stroke-linejoin="round" />
</svg>