<svg width="33" height="32" viewBox="0 0 33 32" fill="none" xmlns="http://www.w3.org/2000/svg">
    <path
        d="M27.6733 4.61333L21.8333 2.66666C21.8333 4.08115 21.2714 5.43771 20.2712 6.4379C19.271 7.43809 17.9145 8 16.5 8C15.0855 8 13.729 7.43809 12.7288 6.4379C11.7286 5.43771 11.1667 4.08115 11.1667 2.66666L5.32666 4.61333C4.72317 4.81439 4.21143 5.22455 3.8838 5.76979C3.55617 6.31502 3.43423 6.95942 3.53999 7.58666L4.31333 12.2133C4.36409 12.5265 4.5249 12.8114 4.76685 13.0167C5.00879 13.222 5.31602 13.3342 5.63333 13.3333H8.49999V26.6667C8.49999 28.1333 9.69999 29.3333 11.1667 29.3333H21.8333C22.5406 29.3333 23.2188 29.0524 23.7189 28.5523C24.219 28.0522 24.5 27.3739 24.5 26.6667V13.3333H27.3667C27.684 13.3342 27.9912 13.222 28.2331 13.0167C28.4751 12.8114 28.6359 12.5265 28.6867 12.2133L29.46 7.58666C29.5658 6.95942 29.4438 6.31502 29.1162 5.76979C28.7886 5.22455 28.2768 4.81439 27.6733 4.61333Z"
        stroke="#262626" stroke-width="2" stroke-linecap="round" stroke-linejoin="round" />
</svg>